arm26_states
version=1
nRows=20
nColumns=17
inDegrees=yes

# SIMM Motion File Header:
name arm26_states
datacolumns 17
datarows 20
otherdata 1
range 0.16370029 0.17823741
endheader
time	/jointset/r_shoulder/r_shoulder_elev/value	/jointset/r_shoulder/r_shoulder_elev/speed	/jointset/r_elbow/r_elbow_flex/value	/jointset/r_elbow/r_elbow_flex/speed	/forceset/TRIlong/activation	/forceset/TRIlong/fiber_length	/forceset/TRIlat/activation	/forceset/TRIlat/fiber_length	/forceset/TRImed/activation	/forceset/TRImed/fiber_length	/forceset/BIClong/activation	/forceset/BIClong/fiber_length	/forceset/BICshort/activation	/forceset/BICshort/fiber_length	/forceset/BRA/activation	/forceset/BRA/fiber_length
      0.16370029	     -5.92099296	    -57.15057674	     25.73546456	    272.20785464	      0.01002109	      0.14302343	      0.01306382	      0.08067434	      0.01274239	      0.07552165	      0.12491328	      0.14307668	      0.02888555	      0.14177825	      0.01045733	      0.08737739
      0.16458347	     -5.97146687	    -56.89056464	     25.97587148	    271.89658599	      0.01002102	      0.14308908	      0.01309080	      0.08067332	      0.01276507	      0.07597144	      0.12482496	      0.14300230	      0.02885526	      0.14169410	      0.01045482	      0.08732299
      0.16533709	     -6.01434109	    -56.77556506	     26.18077986	    271.94302999	      0.01002096	      0.14314509	      0.01311437	      0.08069589	      0.01278487	      0.07587060	      0.12475037	      0.14293837	      0.02882941	      0.14162191	      0.01045270	      0.08727671
      0.16609072	     -6.05712864	    -56.55154580	     26.38572323	    271.66625049	      0.01002091	      0.14320114	      0.01313832	      0.08088117	      0.01280498	      0.07586715	      0.12467644	      0.14287406	      0.02880355	      0.14154940	      0.01045058	      0.08723050
      0.16690277	     -6.10305126	    -56.31666094	     26.60632951	    271.38460180	      0.01002085	      0.14326161	      0.01316448	      0.08089022	      0.01282694	      0.07588535	      0.12459746	      0.14280434	      0.02877568	      0.14147091	      0.01044832	      0.08718075
      0.16771482	     -6.14878314	    -55.98951710	     26.82670707	    270.82823785	      0.01002079	      0.14332206	      0.01319142	      0.08096316	      0.01284955	      0.07616974	      0.12451947	      0.14273417	      0.02874785	      0.14139204	      0.01044606	      0.08713108
      0.16852687	     -6.19424936	    -55.75235074	     27.04663283	    270.53414691	      0.01002073	      0.14338255	      0.01322015	      0.08111623	      0.01287360	      0.07615499	      0.12444306	      0.14266357	      0.02872013	      0.14131279	      0.01044381	      0.08708153
      0.16939739	     -6.24278315	    -55.47580201	     27.28213943	    270.15018307	      0.01002066	      0.14344730	      0.01325258	      0.08113854	      0.01290071	      0.07616660	      0.12436284	      0.14258741	      0.02869054	      0.14122746	      0.01044141	      0.08702856
      0.17010764	     -6.28218505	    -55.16588813	     27.47401464	    269.58554711	      0.01002061	      0.14350022	      0.01328022	      0.08136704	      0.01292380	      0.07633793	      0.12429883	      0.14252488	      0.02866651	      0.14115751	      0.01043946	      0.08698544
      0.17081790	     -6.32136684	    -54.97010237	     27.66548881	    269.35539026	      0.01002056	      0.14355307	      0.01330868	      0.08136837	      0.01294755	      0.07634512	      0.12423598	      0.14246203	      0.02864256	      0.14108731	      0.01043752	      0.08694240
      0.17169541	     -6.36960372	    -54.63845744	     27.90185119	    268.80352030	      0.01002050	      0.14361834	      0.01334471	      0.08139067	      0.01297759	      0.07641164	      0.12415974	      0.14238401	      0.02861308	      0.14100027	      0.01043513	      0.08688937
      0.17234336	     -6.40500661	    -54.34151019	     28.07602193	    268.23965737	      0.01002045	      0.14366656	      0.01337199	      0.08159450	      0.01300033	      0.07663183	      0.12410473	      0.14232604	      0.02859141	      0.14093572	      0.01043337	      0.08685030
      0.17299131	     -6.44021709	    -54.16507859	     28.24982732	    268.02979829	      0.01002040	      0.14371473	      0.01339969	      0.08159777	      0.01302341	      0.07663105	      0.12405065	      0.14226782	      0.02856981	      0.14087097	      0.01043162	      0.08681132
      0.17386963	     -6.48779140	    -53.84424997	     28.48524345	    267.50171529	      0.01002034	      0.14377997	      0.01343774	      0.08162466	      0.01305509	      0.07664759	      0.12397858	      0.14218858	      0.02854062	      0.14078296	      0.01042925	      0.08675861
      0.17447931	     -6.52061936	    -53.55350491	     28.64833490	    266.93158592	      0.01002030	      0.14382529	      0.01346456	      0.08183868	      0.01307742	      0.07685841	      0.12392971	      0.14213326	      0.02852045	      0.14072161	      0.01042761	      0.08672211
      0.17508899	     -6.55327006	    -53.37973174	     28.81107874	    266.70547468	      0.01002026	      0.14387056	      0.01349161	      0.08184046	      0.01309994	      0.07685861	      0.12388163	      0.14207773	      0.02850033	      0.14066010	      0.01042598	      0.08668568
      0.17597361	     -6.60049063	    -53.05143149	     29.04701069	    266.14994702	      0.01002020	      0.14393618	      0.01353137	      0.08185970	      0.01313303	      0.07687530	      0.12381310	      0.14199687	      0.02847125	      0.14057064	      0.01042362	      0.08663297
      0.17665939	     -6.63687202	    -52.71768263	     29.22952987	    265.48206882	      0.01002015	      0.14398707	      0.01356401	      0.08202988	      0.01316023	      0.07710895	      0.12376201	      0.14193384	      0.02844891	      0.14050101	      0.01042180	      0.08659222
      0.17734516	     -6.67302453	    -52.49854234	     29.41159103	    265.15098645	      0.01002011	      0.14403790	      0.01359781	      0.08203927	      0.01318844	      0.07710622	      0.12371247	      0.14187056	      0.02842674	      0.14043119	      0.01041998	      0.08655156
      0.17823741	     -6.71986644	    -52.12865810	     29.64817245	    264.46669542	      0.01002005	      0.14410395	      0.01364311	      0.08209726	      0.01322626	      0.07712124	      0.12365001	      0.14178790	      0.02839809	      0.14034010	      0.01041763	      0.08649882
